<?xml version="1.0" encoding="UTF-8"?>
<svg id="_Слой_1" data-name="Слой 1" xmlns="http://www.w3.org/2000/svg" viewBox="0 0 1778.53 1823.4">
  <path d="m288.94,288.95C611.71-33.82,1122.63-53.68,1468.58,229.36c0,0-430.57,46.75-347.85,325.56,0,0-309.45,112.41-91.91,356.79-12.94,14.11-195.84,462.68,269.62,369.34,0,0-36.76,391.22,359.55,98.67-34.55,54.97-75.71,106.94-123.53,154.75-343.92,343.92-901.59,343.92-1245.51,0-343.92-343.92-343.92-901.59,0-1245.51Z" style="fill: none; stroke: #240b00; stroke-linejoin: round; stroke-width: 62px;"/>
  <ellipse cx="429.09" cy="466.61" rx="89.32" ry="80.06" transform="translate(-119.51 784.23) rotate(-77.47)" style="fill: #240b00;"/>
  <ellipse cx="590.46" cy="911.7" rx="93.41" ry="99.3" transform="translate(-490.07 1022.67) rotate(-62.93)" style="fill: #240b00;"/>
  <circle cx="844.49" cy="341.18" r="76.14" style="fill: #240b00;"/>
  <ellipse cx="889.27" cy="1526.15" rx="83.4" ry="112.58" transform="translate(-643.94 649.1) rotate(-30)" style="fill: #240b00;"/>
  <ellipse cx="437.44" cy="1327.31" rx="65.27" ry="74.75" transform="translate(-942.8 1546.56) rotate(-80.79)" style="fill: #240b00;"/>
  <circle cx="1280.88" cy="817.01" r="116.76" style="fill: none; stroke: #240b00; stroke-miterlimit: 10; stroke-width: 62px;"/>
  <circle cx="1564.34" cy="537.42" r="120.1" style="fill: none; stroke: #240b00; stroke-miterlimit: 10; stroke-width: 62px;"/>
  <ellipse cx="1606.03" cy="1135.47" rx="178.48" ry="121.76" transform="translate(-227.67 1846.92) rotate(-56.47)" style="fill: none; stroke: #240b00; stroke-miterlimit: 10; stroke-width: 62px;"/>
</svg>